<?xml version="1.0" encoding="utf-8"?>
<!-- Generator: Adobe Illustrator 15.0.0, SVG Export Plug-In . SVG Version: 6.00 Build 0)  -->
<!DOCTYPE svg PUBLIC "-//W3C//DTD SVG 1.1//EN" "http://www.w3.org/Graphics/SVG/1.1/DTD/svg11.dtd">
<svg version="1.1" id="Layer_1" xmlns="http://www.w3.org/2000/svg" xmlns:xlink="http://www.w3.org/1999/xlink" x="0px" y="0px"
	 width="64px" height="64px" viewBox="0 0 64 64" enable-background="new 0 0 64 64" xml:space="preserve">
<path fill="#614036" d="M43.801,5.68C37.793-1.796,8,1.2,8,23.248C8.125,35.094,10.117,62,31.938,62
	C53.754,62,55.75,35.207,56,23.248C56,15.903,51.637,7.221,43.801,5.68z"/>
<path fill="#4A2E24" d="M8.346,30.484C9.42,43.555,13.891,62,31.959,62c18.125,0,22.566-18.486,23.695-31.602
	c-0.594-6.039-4.258-13.838-12.203-23.032C27.164,17.655,9.568,16.053,8.346,30.484z"/>
<rect x="24" y="42" fill="#664935" width="16" height="18"/>
<path fill="#8E3ED6" d="M40,48c0,0.002-2.371,7.75-8.002,7.752C26.371,55.754,24,48.012,24,48.012C11.982,48.313,8,53.859,8,62h48
	C56,53.859,52.014,48.301,40,48z"/>
<path fill="#916B50" d="M48.631,22.901c-2.486-5.864-7.047-12.225-7.047-12.225c-16.688,10.026-30.793,4.995-26.877,23.998
	c1.859,9.017,13.014,16.001,17.41,16.001c4.389,0,15.826-6.931,17.402-16.001C50.434,29.419,49.791,25.633,48.631,22.901z"/>
<path fill="#664935" d="M36.236,35.66c0,2.646-8.137,2.646-8.137,0C28.1,35.051,36.236,35.051,36.236,35.66z"/>
<path fill="#3B2B1C" d="M36.494,43.731c-3.209-2.087-6.301-1.747-8.988,0c-0.348,0.229-0.658-0.252-0.424-0.609
	c0.877-1.353,2.648-2.329,4.918-2.329s4.041,0.979,4.918,2.329C37.152,43.479,36.84,43.96,36.494,43.731z"/>
<path fill="#664935" d="M37.328,19.391c-1.465-1.109-2.674,0.6-1.096,1.551c5.127,3.098,9.031-0.07,11.408,3.266
	C46.215,20.076,41.299,22.396,37.328,19.391z"/>
<path fill="#664935" d="M26.672,19.391c-3.971,3.006-8.887,0.686-10.313,4.816c2.377-3.336,6.279-0.168,11.408-3.266
	C29.348,19.99,28.137,18.281,26.672,19.391z"/>
<path fill="#F5F5F5" d="M17.203,28.111c1.553,3.971,10.137,3.309,11.199,0.758C27.311,23.33,18.264,22.855,17.203,28.111z"/>
<path fill="#45332C" d="M26.453,28.352c0,3.742-6.5,3.742-6.5,0C19.953,24.182,26.453,24.182,26.453,28.352z"/>
<path fill="#45332C" d="M17.203,28.074c0-5.291,11.199-5.291,11.199,0.838C26.801,23.883,18.803,23.883,17.203,28.074z"/>
<path fill="#F5F5F5" d="M46.799,28.111c-1.553,3.973-10.139,3.307-11.197,0.758C36.691,23.33,45.738,22.855,46.799,28.111z"/>
<path fill="#45332C" d="M37.551,28.354c0,3.74,6.5,3.74,6.5,0C44.051,24.182,37.551,24.182,37.551,28.354z"/>
<path fill="#45332C" d="M46.799,28.074c0-5.289-11.197-5.289-11.197,0.836C37.199,23.883,45.199,23.883,46.799,28.074z"/>
<path fill="#F5F5F5" d="M38.004,27.223c0,1.104,1.594,1.104,1.594,0C39.598,26.199,38.004,26.199,38.004,27.223z"/>
<path fill="#F5F5F5" d="M22.199,27c0,1.104-1.594,1.104-1.594,0C20.605,25.977,22.199,25.977,22.199,27z"/>
<rect x="16.594" y="30.563" fill="#916B50" width="30.813" height="2.875"/>
</svg>
