<?xml version="1.0" encoding="utf-8"?>
<!-- Generator: Adobe Illustrator 15.0.0, SVG Export Plug-In . SVG Version: 6.00 Build 0)  -->
<!DOCTYPE svg PUBLIC "-//W3C//DTD SVG 1.1//EN" "http://www.w3.org/Graphics/SVG/1.1/DTD/svg11.dtd">
<svg version="1.1" id="Layer_1" xmlns="http://www.w3.org/2000/svg" xmlns:xlink="http://www.w3.org/1999/xlink" x="0px" y="0px"
	 width="64px" height="64px" viewBox="0 0 64 64" enable-background="new 0 0 64 64" xml:space="preserve">
<rect x="29.441" y="41.99" fill="#946346" width="16.279" height="18.002"/>
<path fill="#018BC9" d="M4.631,19.694h9.525c0,0-9.18,25.474,9.297,28.99c1.732-0.395,3.719-0.629,5.988-0.688
	c0,0,2.412,7.748,8.141,7.748c5.727,0,8.139-7.734,8.139-7.734C57.947,48.303,62,53.855,62,62H12.115
	C-0.529,47.029,0.871,36.963,4.631,19.694z"/>
<path fill="#875B49" d="M37.58,2C17.641,2,17.637,13.999,17.637,29h39.889C57.525,13.999,57.52,2,37.58,2z"/>
<path fill="#B07E61" d="M21.596,34.832c2.16-2.009,0.199-9.9-2.586-10.375C13.057,23.442,16.936,39.172,21.596,34.832z"/>
<path fill="#B07E61" d="M53.566,34.832c-2.16-2.009-0.199-9.9,2.586-10.375C62.104,23.442,58.229,39.17,53.566,34.832z"/>
<path fill="#B88A6F" d="M37.582,10c-20.832,0-12.439,2.412-18,14.65c0,0,0.039,5.611,1.203,11.63C22.287,44.041,31.021,50,37.582,50
	s15.293-5.959,16.795-13.719c1.164-6.019,1.205-11.63,1.205-11.63C50.02,12.413,58.414,10,37.582,10z"/>
<path fill="#F5F5F5" d="M52.381,26.417c-1.926,5.02-9.764,4.283-11.199,0.773C42.271,21.549,51.322,21.067,52.381,26.417z"/>
<path fill="#45332C" d="M43.182,25.883c0,4.426,6.398,4.426,6.398,0C49.58,21.774,43.182,21.774,43.182,25.883z"/>
<path fill="#45332C" d="M52.381,26.381c0-5.389-11.199-5.389-11.199,0.852C42.781,22.114,50.781,22.114,52.381,26.381z"/>
<path fill="#F5F5F5" d="M22.781,26.417c1.926,5.02,9.766,4.283,11.199,0.773C32.891,21.549,23.842,21.067,22.781,26.417z"/>
<path fill="#45332C" d="M31.98,25.883c0,4.426-6.4,4.426-6.4,0C25.58,21.774,31.98,21.774,31.98,25.883z"/>
<path fill="#45332C" d="M22.781,26.381c0-5.387,11.199-5.387,11.199,0.85C32.383,22.114,24.381,22.114,22.781,26.381z"/>
<path fill="#F5F5F5" d="M43.574,24.807c0,1.107,1.6,1.107,1.6,0C45.174,23.78,43.574,23.78,43.574,24.807z"/>
<path fill="#F5F5F5" d="M27.775,24.583c0,1.105-1.602,1.105-1.602,0C26.174,23.555,27.775,23.555,27.775,24.583z"/>
<path fill="#80553C" d="M37.58,39.072c-3.223-0.857-8,0.404-8,0.404c1.82,1.783,3.154,4.096,8,4.096c5.555,0,6.498-2.627,8-4.096
	C45.58,39.477,40.799,38.215,37.58,39.072z"/>
<path fill="#FFFFFF" d="M30.707,39.539c3.424,3.184,10.346,3.203,13.791,0C40.846,39.713,34.385,39.715,30.707,39.539z"/>
<path fill="#946346" d="M51.955,21.463c-3.438-1.418-8.145-1.695-10.561-0.75c-0.51,0.199-0.494,1.42-0.043,1.297
	c3.463-0.943,7.451-1.016,10.732,0.125C52.523,22.29,52.471,21.674,51.955,21.463z"/>
<path fill="#946346" d="M23.207,21.463c3.438-1.418,8.143-1.695,10.561-0.75c0.508,0.199,0.492,1.42,0.041,1.297
	c-3.463-0.943-7.451-1.016-10.729,0.125C22.639,22.29,22.691,21.674,23.207,21.463z"/>
<path fill="#875B49" d="M53.51,8.163c7.43,10.189-27.057,7.531-34.23,6.045C19.279,14.208,29.814-0.162,53.51,8.163z"/>
<path fill="#6B4435" d="M19.279,14.208c10.301,2.168,41.801,1.867,31.887-8.877C67.33,18.225,28.002,19.374,19.279,14.208z"/>
<path fill="#946346" d="M41.58,34.094c0,2.602-8,2.602-8,0C33.58,33.496,41.58,33.496,41.58,34.094z"/>
<path fill="#B88A6F" d="M22.721,13.063c-0.586-1.209-2.594-1.209-4.707,0.932c-1.26,1.277-1.676,1.813-2.662,1.916l0.33-10.699
	c0.031-0.881-0.658-1.641-1.533-1.674h-0.008c-0.879-0.018-1.609,0.689-1.637,1.604l0.031-1.139C12.572,2.917,11.756,2.018,10.717,2
	C9.678,1.967,8.809,2.813,8.775,3.881L8.75,4.727c0.027-0.932-0.68-1.725-1.584-1.742H7.162C6.256,2.95,5.5,3.692,5.469,4.624
	L5.41,6.522c0.029-0.879-0.602-1.605-1.445-1.621c-0.84-0.018-1.516,0.654-1.541,1.535c0,0-1.027,12.855,0.117,15.635
	c1.705,4.141,11.078,5.504,14.264-1.363c0.633-1.363,1.863-2.348,2.973-3.607C21.117,15.583,23.363,14.409,22.721,13.063z"/>
</svg>
