<?xml version="1.0" encoding="utf-8"?>
<!-- Generator: Adobe Illustrator 15.0.0, SVG Export Plug-In . SVG Version: 6.00 Build 0)  -->
<!DOCTYPE svg PUBLIC "-//W3C//DTD SVG 1.1//EN" "http://www.w3.org/Graphics/SVG/1.1/DTD/svg11.dtd">
<svg version="1.1" id="Layer_1" xmlns="http://www.w3.org/2000/svg" xmlns:xlink="http://www.w3.org/1999/xlink" x="0px" y="0px"
	 width="64px" height="64px" viewBox="0 0 64 64" enable-background="new 0 0 64 64" xml:space="preserve">
<path fill="#614A36" d="M17.354,47.342c0.439,2.287,2.814,3.807,5.303,3.395l0.041-0.008c2.49-0.414,4.154-2.605,3.715-4.893
	L20.13,13.123c-0.441-2.287-2.818-3.807-5.307-3.395l-0.041,0.008c-2.488,0.414-4.152,2.605-3.711,4.893L17.354,47.342z"/>
<path fill="#3B2B1C" d="M20.45,50.137l0.045-0.008c2.488-0.414,4.127-2.633,3.689-4.924l-6.285-32.711
	c-0.238-1.242-1.049-2.26-2.137-2.861c2.117,0.053,3.975,1.463,4.361,3.461l6.283,32.713c0.441,2.289-1.203,4.506-3.693,4.92
	l-0.043,0.008c-1.137,0.188-2.25-0.025-3.162-0.533C19.813,50.209,20.132,50.189,20.45,50.137z"/>
<path fill="#614A36" d="M47.901,34.352c0,0-24.305,1.986-26.709-4.711l-6.363,4.545c0,0-1.949,11.045,1.172,18.357
	c3.357,7.869,14.381,7.52,14.381,7.52c11.357,2.15,15.99,0.518,20.67-9.934C52.675,46.496,47.901,34.352,47.901,34.352z"/>
<path fill="#614A36" d="M39.923,39.189c-0.121,2.32,1.826,4.299,4.355,4.412l0.039,0.002c2.527,0.115,4.674-1.674,4.797-3.994
	L50.849,6.42c0.123-2.32-1.83-4.299-4.357-4.412L46.45,2.006C43.923,1.891,41.778,3.68,41.657,6L39.923,39.189z"/>
<path fill="#3B2B1C" d="M42.269,42.559l0.047,0.002c2.523,0.115,4.656-1.707,4.777-4.031L48.825,5.34
	c0.064-1.258-0.48-2.418-1.395-3.23c2.053,0.492,3.525,2.254,3.42,4.281l-1.734,33.188c-0.123,2.322-2.258,4.141-4.785,4.025
	l-0.043-0.002c-1.152-0.051-2.186-0.492-2.953-1.178C41.63,42.498,41.944,42.543,42.269,42.559z"/>
<path fill="#614A36" d="M22.274,26.625c0-2.375,2.043-4.301,4.564-4.301h0.072c2.521,0,4.564,1.926,4.564,4.301v6.652
	c0,2.377-2.043,4.307-4.564,4.307h-0.072c-2.521,0-4.564-1.93-4.564-4.307V26.625z"/>
<path fill="#614A36" d="M31.476,26.145c0-2.375,2.039-4.301,4.561-4.301h0.074c2.518,0,4.563,1.926,4.563,4.301v6.652
	c0,2.377-2.045,4.307-4.563,4.307h-0.074c-2.521,0-4.561-1.93-4.561-4.307V26.145z"/>
<path fill="#3B2B1C" d="M25.521,35.984h0.059c2.52,0,4.52-1.867,4.52-4.246v-6.656c0-0.641-0.148-1.248-0.416-1.797
	c1.09,0.787,1.793,2.025,1.793,3.422v6.656c0,2.375-2,4.221-4.52,4.221h-0.059c-1.84,0-3.424-1.016-4.145-2.496
	C23.519,35.643,24.481,35.984,25.521,35.984z"/>
<path fill="#3B2B1C" d="M34.702,35.504h0.055c2.52,0,4.541-1.867,4.541-4.246v-6.656c0-0.641-0.152-1.25-0.416-1.797
	c1.088,0.785,1.791,2.025,1.791,3.42v6.656c0,2.377-2.02,4.223-4.535,4.223h-0.061c-1.838,0-3.424-1.016-4.146-2.496
	C32.702,35.162,33.661,35.504,34.702,35.504z"/>
<path fill="#3B2B1C" d="M44.095,41.748c-6.201-2.111-17.139,1.768-15.619,11.99c0-9.574,9.396-11.947,14.553-11.947
	C43.646,41.791,44.095,41.748,44.095,41.748z"/>
<path fill="#3B2B1C" d="M42.563,31.799c-3.42-2.43-4.525,0.756-10.762,0.309c-2.732-0.195-4.561,5.037-0.656,7.387
	c5.43,3.268,6.316-0.504,7.545,1.123c1.307,1.73,2.67,2.18,3.711,4.137c0.762,1.42,7.047,0.08,8.115-2.574
	C52.56,37.082,47.993,35.662,42.563,31.799z"/>
<path fill="#614A36" d="M42.931,32.76c-3.553-2.531-4.701,0.785-11.197,0.32c-2.842-0.205-4.74,5.238-0.678,7.684
	c5.645,3.4,6.568-0.523,7.844,1.17c1.359,1.797,2.779,2.266,3.863,4.303c0.789,1.479-2.332,6.461-2.332,6.461
	s5.688,5.623,7.504,2.982c3.367-4.904,3.906-7.738,4.168-10.797C52.706,37.84,48.579,36.777,42.931,32.76z"/>
<path fill="#3B2B1C" d="M41.917,46.291c0.242,0.457,0.113,1.252-0.184,2.127c0.594-1.322,1.045-2.713,0.689-3.385
	c-1.088-2.035-1.779-2.502-3.139-4.301c-1.277-1.697-2.197,2.23-7.848-1.172c-2.086-1.256-2.592-3.303-2.209-4.971
	c-1.049,1.742-0.955,4.627,1.707,6.23c5.646,3.398,6.57-0.525,7.846,1.168C40.138,43.789,40.833,44.256,41.917,46.291z"/>
<path fill="#3B2B1C" d="M47.28,34.93c7.223,5.305,4.102,15.666,0.646,20.066c-5.432,6.93-10.455,5.854-17.586,4.48
	c0,0-9.242,0.998-14.252-6.75c3.135,8.209,14.252,7.83,14.252,7.83c7.563,2.213,12.766,2.668,18.582-4.436
	C52.632,51.592,56.538,39.158,47.28,34.93z"/>
</svg>
