<?xml version="1.0" encoding="utf-8"?>
<!-- Generator: Adobe Illustrator 15.0.0, SVG Export Plug-In . SVG Version: 6.00 Build 0)  -->
<!DOCTYPE svg PUBLIC "-//W3C//DTD SVG 1.1//EN" "http://www.w3.org/Graphics/SVG/1.1/DTD/svg11.dtd">
<svg version="1.1" id="Layer_1" xmlns="http://www.w3.org/2000/svg" xmlns:xlink="http://www.w3.org/1999/xlink" x="0px" y="0px"
	 width="64px" height="64px" viewBox="0 0 64 64" enable-background="new 0 0 64 64" xml:space="preserve">
<path fill="#FCD5B2" d="M22.319,25.414l2.021,3.631c-1.104,0.564-1.063,0.453-1.724,0.914c-1.872,1.301-5.343,1.146-8.782,2.469
	c-3.273,1.26-5.643,0.572-6.135-1.279c0,0-0.736-0.359-0.697-0.947c0.062-0.934,2.285-1.033,2.285-1.033
	c-0.387-0.777,0.816-0.98,3.442-0.129c2.038,0.658,3.966-1.092,6.835-1.662C19.625,27.02,21.767,25.734,22.319,25.414z"/>
<path fill="#302C3B" d="M34.749,54.314c2.383,0.375,5.365,4.379,7.762,2.436l-6.75-8.363c0,0-1.52,0.436-2.564,2.178L34.749,54.314z
	"/>
<path fill="#FCD5B2" d="M42.659,18.083l2.889-5.662l3.115,1.332c0,0-2.109,5.765-3.205,7.478c-0.838,1.309-4.996,2.932-4.996,2.932
	l-1.465-4.311L42.659,18.083z"/>
<path fill="#FCD5B2" d="M48.946,53.904l0.986,4.555c0,0-5.42-1.641-9.17-2.254c-3.771-0.617-6.834-8.35-6.834-8.35l6.396-1.332
	c0,0,1.463,5.045,2.52,5.203C46.169,52.225,45.683,53.861,48.946,53.904z"/>
<path fill="#FCD5B2" d="M34.749,54.314l-1.553-3.75c-1.57,0.426-2.619-0.301-4.042-0.08c-1.824,0.283-0.498-2.539-0.498-2.539
	l-6.787-0.898c0,0,0.489,11.504,6.271,9.229C31.681,54.881,34.749,54.314,34.749,54.314z"/>
<path fill="#A6E639" d="M52.081,2.949c3.42,1.952,4.588,6.274,2.617,9.658c-1.977,3.384-6.342,4.539-9.76,2.586
	c-3.416-1.95-4.59-6.272-2.615-9.655C44.296,2.151,48.665,0.996,52.081,2.949z"/>
<path fill="#E81C27" d="M41.091,48.387c0.635,1.209,1.551,2.24,2.67,2.996c-0.4,4.486-2.908,5.027-2.908,5.027
	c-1.877,0-3.727-1.271-4.207-3.012C36.974,52.102,38.237,50.041,41.091,48.387z"/>
<path fill="#E81C27" d="M28.398,50.012c0.127,0.15,0.277,0.279,0.447,0.381c0.475,4.643-0.588,6.16-0.588,6.16
	c-3.761,1.186-5.197-2.586-5.197-2.586C23.99,51.395,26.541,50.012,28.398,50.012z"/>
<path fill="#E81C27" d="M51.866,2.839c-4.459,5.095-11.4,5.755-3.682-0.783c0.018-0.016,0.035-0.029,0.053-0.043
	C49.464,1.964,50.714,2.23,51.866,2.839z"/>
<path fill="#E81C27" d="M51.081,15.665c-3.551-9.322,1.443-11.445,2.625-1.748C52.958,14.7,52.062,15.292,51.081,15.665z"/>
<path fill="#E81C27" d="M41.401,8.425c8.152,1.906,8.004,6.275,0.539,3.406C41.483,10.761,41.292,9.591,41.401,8.425z"/>
<path fill="#302C3B" d="M49.933,58.459c2.275,0.797,4.359,4.689,7.066,3.209l-5.143-9.443c0,0-1.57,0.154-2.91,1.68L49.933,58.459z"
	/>
<path fill="#E81C27" d="M41.149,23.982c-1.217-0.82-1.822-4.473-1.822-4.473c-7.236,2.211-12.025,2.211-17.267,5.439l2.428,4.365
	c0.303-0.154,0.605-0.322,0.909-0.494c-0.815,4.592-1.485,9.699-1.485,9.699h13.562c0,0-2.066-5.781-0.662-10.709
	C37.163,26.572,41.149,23.982,41.149,23.982z"/>
<path fill="#302C3B" d="M37.474,38.52H23.912c-2.592,5.52-2.777,10.902-2.777,10.902l7.636-1.035
	c1.449-4.951,2.541-3.373,5.644,1.268l6.734-2.803L37.474,38.52z"/>
<polygon fill="#FFE463" points="40.304,47.203 39.056,47.723 34.749,38.52 36.313,38.52 "/>
<path fill="#FFE463" d="M35.476,20.545l-1.383,0.332c-1.648,8.449-0.486,17.643-0.486,17.643h1.643
	C35.249,38.52,33.595,28.746,35.476,20.545z"/>
<path fill="#FCD5B2" d="M30.949,15.179l2.794-1.463c0,0,0,4.059,0,7.256c0,2.236-6.96,3.947-5.292,1.724
	C29.625,21.13,30.949,15.179,30.949,15.179z"/>
<path fill="#DBA97F" d="M26.783,19.309c1.823,1.051,1.777,3.779,1.777,3.779c2.541,0,3.295-5.046,3.295-7.909L26.783,19.309z"/>
<path fill="#FCD5B2" d="M30.365,3.298c-7.54,0-9.314,4.234-8.587,7.258c0.363,1.512-0.378,2.779-1.502,3.867
	c-1.067,1.034,0.289,1.695,1.116,1.695c0.202,0.556-0.113,0.705-0.113,0.705s1.038,0.729,0.817,0.975
	c-0.323,0-0.603,0.595-0.011,0.886c0.653,0.321-0.894,2.653,1.732,2.462c2.125-0.156,5.58-1.563,6.118-2.031
	c0.613-0.534,2.079-3.507,2.079-3.507C35.993,14.942,41.722,9.259,30.365,3.298z"/>
<path fill="#DBA97F" d="M31.289,12.753c-0.046-1.094,0.814-2.078,1.714-2.116c0,0-1.492,1.36-1.024,3.104
	C31.979,13.741,31.32,13.517,31.289,12.753z"/>
<path fill="#594640" d="M21.892,7.64c9.414-3.867,6.189,2.383,8.624,4.976c0.741-2.904,2.897-3.48,3.6-1.75
	c0.803,1.975-0.352,4.582-2.028,4.362c0.186,0.646,1.624,2.57,1.624,2.57c3.981-0.523,7.81-15.195-4.156-15.197
	C25.125,2.601,21.077,4.424,21.892,7.64z"/>
<path fill="#F2C198" d="M24.456,16.796c-0.792,1.287-1.653,1.897-2.209,2.136c-0.899-0.274-0.504-1.236-0.087-1.236
	C22.481,17.695,23.071,17.365,24.456,16.796z"/>
<path fill="#DBA97F" d="M24.456,16.796c-0.756,0.786-2.313,0.974-2.313,0.974c-0.229-0.074-0.865-0.257-0.865-0.946
	C21.724,17.174,23.311,17.254,24.456,16.796z"/>
<path fill-rule="evenodd" clip-rule="evenodd" fill="#DBA97F" d="M22.336,10.799c0.348-0.599,1.221-0.352,3.598-0.368
	C24.333,9.525,22.119,9.121,22.336,10.799z"/>
<path fill="#FFFFFF" d="M25.26,11.568c-0.216,2.056-1.504,1.882-1.813,1.882C23.061,13.212,21.864,9.809,25.26,11.568z"/>
<path fill="#45332C" d="M22.847,12.035c0.255,1.587,1.001,1.876,1.004-0.208C23.854,10.298,22.641,10.76,22.847,12.035z"/>
<path fill-rule="evenodd" clip-rule="evenodd" fill="#45332C" d="M22.823,11.593c0.224-1.52,1.859-0.475,2.577,0
	C24.292,11.419,23.526,10.93,22.823,11.593z"/>
</svg>
