<?xml version="1.0" encoding="utf-8"?>
<!-- Generator: Adobe Illustrator 15.0.0, SVG Export Plug-In . SVG Version: 6.00 Build 0)  -->
<!DOCTYPE svg PUBLIC "-//W3C//DTD SVG 1.1//EN" "http://www.w3.org/Graphics/SVG/1.1/DTD/svg11.dtd">
<svg version="1.1" id="Layer_1" xmlns="http://www.w3.org/2000/svg" xmlns:xlink="http://www.w3.org/1999/xlink" x="0px" y="0px"
	 width="64px" height="64px" viewBox="0 0 64 64" enable-background="new 0 0 64 64" xml:space="preserve">
<path fill="#018BC9" d="M2,43.078c31.967,15.957,32.531-11.338,60,3.529V62H2V43.078z"/>
<path fill="#B88A6F" d="M2.789,45.531C2.98,43.454,5,41.523,9.008,41.163c2.506-0.227,4.559-2.192,7.789-2.847
	c0.813-1.349,2.957-4.538,4.693-6.763c2.029-2.599,5.898-0.251,3.979,2.967c-1.256,2.096-3.832,6.028-6.17,7.214
	c-1.859,0.938-7.275,1.899-9.318,3.01l0,0c-2.934,3.117-4.455,3.775-4.418,2.461c0,0-2.859,1.272-3.479,0.028
	C1.693,46.448,2.789,45.531,2.789,45.531z"/>
<path fill="#B88A6F" d="M49.412,15.314l-4.555,8.02c0,0-3.666,2.555-6.545,2.865c-5.174,0.56-14.928,2.712-16.822,5.354
	c2.602,4.824,0.527,17.348-1.682,24.446h12.068c1.479-8.908,7.369-12.389,7.209-19.881c-0.057-2.678,6.494-6.9,8.4-8.539
	c2.578-2.214,5.736-10.797,5.736-10.797L49.412,15.314z"/>
<path fill="#8E3ED6" d="M38.313,26.199c-0.896,0.097-1.934,0.242-3.043,0.43c-2.248,8.019-10.623,9.644-8.631,2.094
	c-1.711,0.44-3.059,1.257-3.059,1.257c-1.043,4.652-4.871,7.647-2.037,11.48c1.064,1.438-0.352,10.097-1.734,14.54h15.068
	c-0.5-9.082,4.342-11.175,4.182-18.667C37.584,38.71,35.084,34.835,38.313,26.199z"/>
<path fill="#F59E01" d="M56.965,3.096c4.633,2.429,6.385,8.099,3.916,12.674c-2.467,4.576-8.219,6.312-12.846,3.887
	c-4.629-2.425-6.387-8.099-3.916-12.67C46.588,2.408,52.34,0.669,56.965,3.096z"/>
<path fill="#D47706" d="M50.535,16.505c-4.525-2.37-6.295-7.843-4.064-12.357c-0.939,0.763-1.746,1.714-2.352,2.839
	c-2.471,4.571-0.713,10.245,3.916,12.67c4.627,2.425,10.379,0.689,12.846-3.887c0.057-0.104,0.1-0.21,0.15-0.314
	C58.154,17.794,54.025,18.334,50.535,16.505z"/>
<path fill="#AB5C10" d="M59.424,4.959c-4.947,0.568-8.285,2.461-9.588,3.326c-0.291-0.471-0.541-1.045-0.723-1.708
	c0.67-0.698,2.893-2.684,7.242-3.762c-0.885-0.388-1.799-0.633-2.723-0.739c-2.307,0.859-3.859,1.926-4.793,2.723
	c-0.031-0.633,0.023-1.35,0.127-2.112c-0.551,0.22-1.084,0.49-1.588,0.811c-0.373,5.644,3.188,7.816,4.455,8.402
	c0.043,0.409,0.061,1.128-0.15,1.98c-1.396-0.636-4.773-2.52-7.604-6.807c-0.285,0.538-0.514,1.087-0.682,1.646
	c2.945,4.089,6.289,5.915,7.754,6.558c-0.258,0.48-0.619,0.972-1.088,1.451c-0.953-0.24-3.855-1.224-7.025-4.617
	c0.072,0.926,0.285,1.84,0.629,2.703c1.992,1.729,3.793,2.61,4.998,3.043c-0.543,0.354-1.174,0.682-1.906,0.979
	c0.396,0.299,0.816,0.581,1.275,0.819c0.088,0.045,0.176,0.078,0.262,0.122c5.029-2.504,5.115-6.687,4.988-8.083
	c0.322-0.238,0.91-0.599,1.717-0.842c0.041,1.599-0.105,5.444-2.008,9.874c0.584-0.029,1.16-0.115,1.727-0.251
	c1.76-4.512,1.828-8.334,1.758-9.878c0.559-0.022,1.18,0.049,1.846,0.22c0.268,0.941,0.859,3.885-0.402,8.237
	c0.732-0.502,1.4-1.111,1.975-1.818c0.463-2.548,0.324-4.52,0.1-5.763c0.604,0.311,1.236,0.718,1.895,1.245
	c0.088-0.595,0.117-1.186,0.092-1.776c-4.736-3.276-8.443-1.23-9.598-0.412c-0.367-0.162-0.977-0.494-1.592-1.084
	c1.338-0.852,4.764-2.684,9.74-3.074C60.213,5.871,59.842,5.397,59.424,4.959z"/>
<path fill="#B88A6F" d="M30.789,21.437l3.197-1.816c0,0,0,5.039,0,9.009c0,2.773-7.965,4.897-6.055,2.137
	C29.275,28.823,30.789,21.437,30.789,21.437z"/>
<path fill="#946346" d="M26.021,26.563c2.088,1.304,2.035,4.69,2.035,4.69c2.906,0,3.77-6.264,3.77-9.817L26.021,26.563z"/>
<path fill="#0FB4D4" d="M2,62h60v-9.569C34.533,37.563,33.967,63.858,2,47.9V62z"/>
<path fill="#75D6FF" d="M62,55.313c-18.582-2.318-25.82,8.89-60,0.707V62h60V55.313z"/>
<ellipse opacity="0.2" fill="#FFE12C" cx="54.016" cy="8.347" rx="6.365" ry="5.76"/>
<path fill="#B88A6F" d="M28.6,7.718c-8.518,0-9.59,4.773-8.809,8.199c0.414,1.817-0.414,3.185-1.744,4.432
	c-0.818,0.77-0.143,1.704,1.438,1.704c0.154,0.721-0.258,0.945-0.258,0.945s1.172,0.821,0.924,1.1c-0.365,0-0.908,0.807-0.037,1.179
	c0.756,0.322-0.887,2.174,2.074,2.443c2.252,0.205,4.834-0.599,7-2.523c1.313-1.164,2.166-3.573,2.166-3.573
	C35.85,20.874,41.43,14.451,28.6,7.718z"/>
<path fill-rule="evenodd" clip-rule="evenodd" fill="#946346" d="M20.438,15.854c-0.311-2.538,2.74-1.076,3.83-0.857
	C23.342,15.234,21.143,14.432,20.438,15.854z"/>
<path fill="#B07E61" d="M22.762,22.998c-0.895,1.456-1.893,2.101-2.52,2.369c-1.016-0.311-0.545-1.352-0.074-1.352
	C20.531,24.016,21.197,23.642,22.762,22.998z"/>
<path fill="#946346" d="M22.762,22.998c-0.854,0.89-2.611,1.1-2.611,1.1c-0.26-0.082-0.924-0.319-0.924-1.1
	C19.73,23.395,21.469,23.516,22.762,22.998z"/>
<path fill="#FFFFFF" d="M23.74,16.725c-0.244,2.322-1.699,2.124-2.047,2.124C21.256,18.579,19.904,14.734,23.74,16.725z"/>
<path fill="#45332C" d="M21.014,17.252c0.289,1.792,1.131,2.119,1.135-0.236C22.152,15.287,20.781,15.811,21.014,17.252z"/>
<path fill-rule="evenodd" clip-rule="evenodd" fill="#45332C" d="M20.988,16.751c0.252-1.718,2.1-0.536,2.91,0
	C22.646,16.556,21.781,16.003,20.988,16.751z"/>
<path fill="#8E3ED6" d="M19.959,11.908c0,0,9.971-0.538,14.025,12.37l4.891-11.529C36.182,2.611,22.508,2.611,19.959,11.908z"/>
<path fill="#5D1E96" d="M38.875,12.749c-2.889,1.704-3.814,5.154-3.814,5.154c-2.365-2.23-4.92-0.935-4.92-0.935
	s2.383,2.553,3.844,7.31C37.371,22.559,40.227,17.771,38.875,12.749z"/>
<path fill="#8E3ED6" d="M34.646,19.266c0.055,4.029-5.947,4.546-6.004,0.513C28.584,15.744,34.588,15.229,34.646,19.266z"/>
</svg>
