<?xml version="1.0" encoding="utf-8"?>
<!-- Generator: Adobe Illustrator 15.0.0, SVG Export Plug-In . SVG Version: 6.00 Build 0)  -->
<!DOCTYPE svg PUBLIC "-//W3C//DTD SVG 1.1//EN" "http://www.w3.org/Graphics/SVG/1.1/DTD/svg11.dtd">
<svg version="1.1" id="Layer_1" xmlns="http://www.w3.org/2000/svg" xmlns:xlink="http://www.w3.org/1999/xlink" x="0px" y="0px"
	 width="64px" height="64px" viewBox="0 0 64 64" enable-background="new 0 0 64 64" xml:space="preserve">
<polygon fill="#E81C27" points="36.001,2 22.001,30 28.001,30 42.001,2 "/>
<polygon fill="#006DAE" points="48.001,2 34.001,30 40,30 54,2 "/>
<polygon fill="#E8E8E8" points="42.001,2 28.001,30 34.001,30 48.001,2 "/>
<path fill="#F9C802" d="M43.001,28h-22c0,0-1,0-1,1v7h2v-6h19c0,0,1,0,1,1v5h2v-7C44.001,28,43.001,28,43.001,28z"/>
<polygon opacity="0.5" fill="#302C3B" points="32.771,8.462 23.077,27.846 24.001,30 40.001,30 41.077,27.846 "/>
<polygon fill="#006DAE" points="28.001,2 22.001,2 34.001,30 40.001,30 "/>
<polygon fill="#E81C27" points="16.001,2 10,2 22,30 28.001,30 "/>
<polygon fill="#E8E8E8" points="28.001,30 34.001,30 22.001,2 16.001,2 "/>
<circle fill="#F9C802" cx="32" cy="46" r="16.001"/>
<path fill="#F59E01" d="M32.222,31.453c-8.156,0-14.768,6.621-14.768,14.797c0,2.438,0.6,4.727,1.641,6.754
	c-0.525-1.609-0.82-3.324-0.82-5.109c0-8.664,6.695-15.748,15.18-16.378C33.046,31.483,32.64,31.453,32.222,31.453"/>
<path fill="#FEEC9A" d="M43.347,36.844c4.166,7.277,1.988,16.691-5.197,21.52c-1.484,0.996-3.068,1.711-4.695,2.184
	c2.258-0.281,4.49-1.07,6.514-2.426c6.779-4.555,8.617-13.648,4.107-20.313C43.845,37.473,43.599,37.156,43.347,36.844"/>
<path fill="#F59E01" d="M27.739,42.47v1.099c0.885,0,1.755-0.246,2.422-0.515v-1.493C29.765,41.814,28.821,42.271,27.739,42.47z"/>
<rect x="33.86" y="37.5" fill="#F59E01" width="1" height="13.625"/>
<polygon fill="#F59E01" points="36.927,52.125 36.927,54.5 27.739,54.5 27.739,55.5 37.927,55.5 37.927,52.125 "/>
<rect x="34.86" y="51.125" fill="#FEEC9A" width="2.066" height="1"/>
<path fill="#FEEC9A" d="M31.161,52.125v-9.564c-0.205,0.131-0.56,0.316-1,0.493v8.071h-3.422V54.5h1v-2.375H31.161z"/>
<path fill="#FEEC9A" d="M31.981,37.5h1.879v-1h-2.879c-0.227,1.084-2.727,3.221-4.242,3.221v2.848c0.339,0,0.675-0.039,1-0.099
	v-1.749C29.255,40.721,31.755,38.584,31.981,37.5z"/>
<path opacity="0.2" fill="#302C3B" d="M36.927,52.125H34.86v-1h-1V37.5h-1.879c-0.227,1.084-2.727,3.221-4.242,3.221v1.749
	c1.082-0.198,2.025-0.655,2.422-0.909v1.493c0.44-0.177,0.795-0.362,1-0.493v9.564h-3.422V54.5h9.188V52.125z"/>
</svg>
