<?xml version="1.0" encoding="utf-8"?>
<!-- Generator: Adobe Illustrator 15.0.0, SVG Export Plug-In . SVG Version: 6.00 Build 0)  -->
<!DOCTYPE svg PUBLIC "-//W3C//DTD SVG 1.1//EN" "http://www.w3.org/Graphics/SVG/1.1/DTD/svg11.dtd">
<svg version="1.1" id="Layer_1" xmlns="http://www.w3.org/2000/svg" xmlns:xlink="http://www.w3.org/1999/xlink" x="0px" y="0px"
	 width="64px" height="64px" viewBox="0 0 64 64" enable-background="new 0 0 64 64" xml:space="preserve">
<path opacity="0.2" fill="#A6AEB0" d="M62,62H2V30c24.666,12.615,39.115-11.355,60,0V62z"/>
<path fill="#EA8800" d="M43.308,5.68C37.552-1.796,9,1.199,9,23.248C9.119,35.095,11.029,62,31.939,62
	C52.848,62,54.761,35.207,55,23.248C55,15.903,50.818,7.221,43.308,5.68z"/>
<path fill="#D67C00" d="M9.332,30.484C10.361,43.555,14.645,62,31.96,62c17.37,0,21.627-18.486,22.708-31.602
	C54.1,24.359,50.589,16.561,42.974,7.368C27.364,17.654,10.504,16.053,9.332,30.484z"/>
<path fill="#FDCA47" d="M46.407,49.139c-1.285,0-7.343,0-8.241-1.094c-0.773-0.961-0.387-4.655-0.387-4.655H26.221
	c0,0,0.387,3.694-0.387,4.655c-0.897,1.094-6.956,1.094-8.241,1.094C10.979,49.139,9.215,62,9.215,62h45.57
	C54.785,62,53.021,49.139,46.407,49.139z"/>
<path fill="#A0D8E9" d="M23.112,62h26.076c0,0-0.323-4.139-4.074-4.092C21.551,58.188,23.112,62,23.112,62z"/>
<path fill="#CAE8F0" d="M33.971,58.311c-12.11-0.024-10.395-0.391-15.083-0.402C15.133,57.896,14.812,62,14.812,62h26.077
	C40.889,62,40.016,58.323,33.971,58.311z"/>
<path opacity="0.4" fill="#A6AEB0" d="M60.566,7.733C58.16,5.462,59.842,2,59.842,2s-4.93,4.537-1.803,7.646
	c3.609,3.583,1.803,5.735,1.803,5.735S64.172,11.438,60.566,7.733"/>
<path opacity="0.4" fill="#A6AEB0" d="M4.822,7.56C2.938,5.768,4.248,3,4.248,3S0.313,6.584,2.855,9.107
	c2.869,2.851,1.393,4.642,1.393,4.642S7.775,10.491,4.822,7.56"/>
<path opacity="0.2" fill="#A6AEB0" d="M6.322,20.605c-1.885-1.792-0.572-4.56-0.572-4.56s-3.936,3.584-1.393,6.107
	c2.869,2.851,1.393,4.642,1.393,4.642S9.275,23.537,6.322,20.605"/>
<path opacity="0.6" fill="#A6AEB0" d="M9.033,12.266c-1.414-1.345-0.43-3.42-0.43-3.42s-2.951,2.688-1.045,4.58
	c2.152,2.138,1.045,3.481,1.045,3.481S11.248,14.464,9.033,12.266"/>
<path opacity="0.2" fill="#A6AEB0" d="M12.616,7.182c-1.414-1.345-0.43-3.42-0.43-3.42s-2.951,2.688-1.045,4.58
	c2.152,2.138,1.045,3.481,1.045,3.481S14.831,9.38,12.616,7.182"/>
<path opacity="0.6" fill="#A6AEB0" d="M51.449,6.42C50.035,5.075,51.02,3,51.02,3s-2.951,2.688-1.045,4.58
	c2.152,2.138,1.045,3.481,1.045,3.481S53.664,8.618,51.449,6.42"/>
<path opacity="0.4" fill="#A6AEB0" d="M61.116,23.962c-1.414-1.345-0.43-3.42-0.43-3.42s-2.951,2.688-1.045,4.58
	c2.152,2.138,1.045,3.481,1.045,3.481S63.331,26.16,61.116,23.962"/>
<path opacity="0.2" fill="#A6AEB0" d="M57.465,15.349c-1.912-1.803-0.574-4.552-0.574-4.552s-3.916,3.603-1.432,6.071
	c2.863,2.845,1.432,4.553,1.432,4.553S60.328,18.291,57.465,15.349"/>
<path fill="#FDCA47" d="M47.518,21.841c-2.321-5.225-6.575-10.893-6.575-10.893c-15.57,8.933-28.731,4.451-25.077,21.38
	c1.735,8.033,12.143,14.256,16.244,14.256c4.096,0,14.767-6.176,16.237-14.256C49.197,27.647,48.599,24.274,47.518,21.841z"/>
<path fill="#F5F5F5" d="M46.342,25.173c-1.854,4.826-9.392,4.117-10.772,0.742C36.618,20.49,45.322,20.025,46.342,25.173z"/>
<path fill="#45332C" d="M37.492,24.658c0,4.257,6.156,4.257,6.156,0C43.648,20.706,37.492,20.706,37.492,24.658z"/>
<path fill="#45332C" d="M46.342,25.138c0-5.183-10.772-5.183-10.772,0.82C37.107,21.033,44.803,21.033,46.342,25.138z"/>
<path fill="#F5F5F5" d="M17.87,25.173c1.854,4.826,9.393,4.117,10.773,0.742C27.595,20.49,18.892,20.025,17.87,25.173z"/>
<path fill="#45332C" d="M26.721,24.658c0,4.257-6.156,4.257-6.156,0C20.564,20.707,26.721,20.707,26.721,24.658z"/>
<path fill="#45332C" d="M17.87,25.138c0-5.182,10.773-5.182,10.773,0.818C27.105,21.033,19.41,21.033,17.87,25.138z"/>
<path fill="#F5F5F5" d="M37.871,23.623c0,1.064,1.539,1.064,1.539,0C39.41,22.635,37.871,22.635,37.871,23.623z"/>
<path fill="#F5F5F5" d="M22.674,23.407c0,1.064-1.538,1.064-1.538,0C21.136,22.419,22.674,22.419,22.674,23.407z"/>
<path fill="#D99025" d="M39.801,37.55c-1.447,1.638-2.352,4.535-7.694,4.535c-4.661,0-5.945-2.552-7.694-4.535H39.801z"/>
<path fill="#FFFFFF" d="M38.838,37.6c-3.166,3.244-10.257,3.288-13.466,0H38.838z"/>
<path fill="#D99025" d="M32.106,37.289c-3.015-1.322-3.038-0.053-7.695,0.261c5.881,0.659,9.51,0.659,15.391,0
	C35.145,37.236,35.121,35.967,32.106,37.289z"/>
<path fill="#E6A400" d="M45.688,20.521c-3.263-1.344-7.728-1.607-10.021-0.71c-0.484,0.189-0.47,1.348-0.041,1.231
	c3.287-0.896,7.071-0.964,10.185,0.119C46.229,21.307,46.179,20.723,45.688,20.521z"/>
<path fill="#E6A400" d="M18.406,20.522c3.263-1.344,7.728-1.607,10.021-0.71c0.484,0.189,0.469,1.348,0.042,1.231
	c-3.288-0.896-7.072-0.965-10.185,0.119C17.866,21.308,17.916,20.724,18.406,20.522z"/>
<path fill="#E6A400" d="M35.954,32.892c0,2.47-7.593,2.47-7.593,0C28.361,32.325,35.954,32.325,35.954,32.892z"/>
<path opacity="0.2" fill="#A6AEB0" d="M62,62H2V44c24.031-10.623,37.939,11.593,60,0V62z"/>
</svg>
