<?xml version="1.0" encoding="utf-8"?>
<!-- Generator: Adobe Illustrator 15.0.0, SVG Export Plug-In . SVG Version: 6.00 Build 0)  -->
<!DOCTYPE svg PUBLIC "-//W3C//DTD SVG 1.1//EN" "http://www.w3.org/Graphics/SVG/1.1/DTD/svg11.dtd">
<svg version="1.1" id="Layer_1" xmlns="http://www.w3.org/2000/svg" xmlns:xlink="http://www.w3.org/1999/xlink" x="0px" y="0px"
	 width="64px" height="64px" viewBox="0 0 64 64" enable-background="new 0 0 64 64" xml:space="preserve">
<polygon fill="#D6A57C" points="32.248,2 25.169,37.273 24.202,62 2,62 2,2 "/>
<polygon fill="#9E6C49" points="34.31,2 32.572,12.509 35.271,12.509 25.739,38.45 24.202,62 21.835,46.081 29.81,2 "/>
<polygon fill="#B47D56" points="20.706,2 17.573,18.768 23.413,19.457 24.349,29.64 12.315,56.59 18.534,58.122 16.761,62 2,62 2,2 
	"/>
<path fill="#E6A400" d="M34.499,29.102c-1.252-0.689-5.465,3.813-9.74,6.771c-0.26,0.179,0.729,2.279,0.998,2.122
	c3.445-1.995,5.637-1.995,7.49-4.047c0.283,0.593,1.037,1.259,1.416,2.132c0.262,0.603,4.4-2.468,3.887-2.967
	C35.819,30.455,35.599,29.707,34.499,29.102z"/>
<path fill="#E6A400" d="M44.382,28.228c-2.273-1.34-2.237-2.993-4.354-6.188c-1.359-2.05-1.197-3.815-2.651-6.896
	c-0.106-0.225,1.423-1.754,1.548-1.537c1.742,3.028,3.295,4.799,4.135,6.769c0.783,1.835,3.643,4.37,4.18,6.52
	C47.362,27.381,44.862,28.51,44.382,28.228z"/>
<path fill="#302C3B" d="M31.341,13.554c-0.426-0.645,2.658-2.196,3.336-2.228c0.844-0.038,3.637,0.727,4.557,2.793
	c0.109,0.244-1.192,1.138-1.594,1.236c-0.658-0.21-0.816-1.133-1.613-1.021c-1.035,0.146-0.971,0.468-2.43,0.703
	c-0.914,0.146-0.819-0.374-0.414-0.461c2.342-0.497,1.707-1.328,0.852-1.655C33.7,12.794,33.378,12.573,31.341,13.554z"/>
<path fill="#302C3B" d="M25.097,35.636c-0.816-0.656-1.797-4.107-2.736-3.771c-1.262,3.31,0,3.35,1.164,6.894
	c0.172,0.525,2.021,0.505,2.232-0.765L25.097,35.636z"/>
<path fill="#5D1E96" d="M39.972,34.156c-0.227-0.771-1.77-1.891-1.77-1.891s-2.236,1.992-3.893,3.476c0,0,0.539,2.058,0.557,3.337
	C34.894,41.258,40.603,36.293,39.972,34.156z"/>
<path fill="#EA8800" d="M48.967,38.315c-0.359-1.229,3.207-4.69,5.295-5.24c5.037-1.332,4.543-7.177,1.008-8.563l-1.195,2.56
	C57.611,28.089,45.09,33.081,48.967,38.315z"/>
<path fill="#EA8800" d="M50.922,37.528c-0.686-3.477,4.932-3.6,6.471-7.021C53.639,30.065,48.113,34.263,50.922,37.528z"/>
<path fill="#EA8800" d="M49.057,33.011c0.469-1.73,7.24-1.97,5.805-5.286C53.672,29.956,48.975,30.162,49.057,33.011z"/>
<path fill="#8E3ED6" d="M57.314,25.798c-0.54-1.061-3.457-0.922-3.633,1.021C53.533,28.416,58.035,27.206,57.314,25.798z"/>
<path fill="#FDCA47" d="M47.331,23.292c1.807,2.035-0.99,2.795-0.99,2.795c0.867,0.798,1.807,2.457,3.096,2.204
	c1.414-0.275,4.865-4.626,4.865-4.626L47.331,23.292z"/>
<path fill="#E6A400" d="M47.331,23.292c0.783,1.917-0.99,2.795-0.99,2.795c2.564,1.287,7.961-2.422,7.961-2.422L47.331,23.292z"/>
<path fill="#FDCA47" d="M58.394,15.126c-4.424-4.425-7.764-2.25-8.697-0.637c-0.398,0.693-2.459,1.258-3.051,1.248
	c-1.314-0.016-0.76,1.429-0.221,1.748c-0.139,0.547-0.787,0.151-0.572,0.595c0,0,0.854,1.777-0.797,2.1
	c0.123,0.604-1.121,0.861-0.74,1.68c0.535,1.142,3.285,2.42,5.4,2.555c1.281,0.083,2.963-0.71,2.963-0.71
	C53.528,25.982,61.597,25.251,58.394,15.126z"/>
<path fill="#E6A400" d="M53.679,21.52c0.768-0.832,2.117-0.915,2.809-0.279c0,0-2.092-0.11-3.02,1.509
	C53.468,22.749,53.147,22.099,53.679,21.52z"/>
<path fill="#F5F5F5" d="M51.571,17.524c-1.316,0.442-2.002-0.091-2.416-0.504C49.862,14.325,51.091,15.923,51.571,17.524z"/>
<path fill="#45332C" d="M49.569,15.908c-0.74,0.99,0.111,1.635,0.846,0.847C51.435,15.662,50.388,14.812,49.569,15.908z"/>
<path fill="#F5F5F5" d="M50.319,16.003c-0.223,0.222,0.102,0.545,0.324,0.323C50.851,16.117,50.528,15.796,50.319,16.003z"/>
<path fill="#45332C" d="M51.571,17.524c-0.266-1.808-1.283-2.959-2.119-1.731C50.327,15.212,50.829,15.986,51.571,17.524z"/>
<path fill="#D99025" d="M47.843,20.198c-0.379,0.238-1.869,0.555-2.787-0.019c-0.48-0.303,0.172-1.03,0.564-0.754L47.843,20.198z"/>
<path fill="#FFFFFF" d="M47.843,20.198c0,0-1.002,0.092-2.223-0.772l0.377-0.68L47.843,20.198z"/>
<path fill="#AB5C10" d="M45.933,17.834c0.189,0.926,1.91,2.364,1.91,2.364c-0.33,0.146-1.67-1.01-2.061-1.449
	C45.386,18.297,45.909,17.723,45.933,17.834z"/>
<path fill="#EA8800" d="M52.198,12.544c-0.908,0.906,1.766,6.995,4.121,7.86c3.182,1.167-1.283,5.228-3.135,3.924
	c-0.27,0.484-0.725,1.482-0.725,1.482c2.17,2.708,9.205-1.295,8.697-6.515C60.624,13.802,54.026,10.717,52.198,12.544z"/>
<path fill="#EA8800" d="M39.212,37.282L25.872,2h1.537L40.83,37.534C40.787,37.659,38.596,39.201,39.212,37.282z"/>
<path fill="#302C3B" d="M20.708,18.896c0.053-0.477,1.979-0.721,2.592-0.64c0.273,0.035,2.842,0.335,3.611,2.419
	c0.139,0.378-1.598,1.667-1.893,1.333c-0.656-0.747-1.145-1.579-1.682-2.027C22.792,19.525,20.638,19.513,20.708,18.896z"/>
<path fill="#FDCA47" d="M24.87,21.834c1.35,2.006,6.655,5.527,7.378,5.909c0.8,0.424,2.436,0.421,6.105,0.961
	c0.711,0.105,2.044-3.75,1.339-3.879c-3.873-0.707-5.036-0.473-6.628-0.686c-1.088-1.212-5.028-2.321-6.153-3.465
	C26.595,20.353,24.63,21.478,24.87,21.834z"/>
<path fill="#FDCA47" d="M17.722,55.269c2.432-4.409,3.27-7.169,5.043-8.909c1.271-1.248,4.025-2.993,5.857-4.449
	c0.596-0.475,4.164,3.173,3.557,3.64c-1.381,1.069-4.672,2.111-6.307,2.899c-1.156,2.999-3.715,3.337-5.301,5.93
	C20.396,54.665,17.552,55.578,17.722,55.269z"/>
<path fill="#302C3B" d="M17.722,55.269c-0.982,0.849-4.555,2.23-4.092,3.165c3.588,0.907,3.42-0.597,7.277-1.856
	c0.549-0.18,0.492-1.177-0.336-2.198L17.722,55.269z"/>
<path fill="#8E3ED6" d="M39.397,24.601l-1.605,4.162c1.421,0.066,1.718,0.41,1.718,0.41s-0.915,1.356,0.386,2.263
	c-0.508,1.42-0.844,2.917-1.592,3.938c-1.627,2.22-6.943,3.8-10.037,6.488c-0.109,0.944,3.414,4.219,3.414,4.219
	c1.963-1.06,5.754-1.225,8.213-1.393c6.383-0.437,3.996-6.83,10.332-16.422c0.666-1.007-3.794-3-4.957-3.09
	C43.59,25.047,39.397,24.601,39.397,24.601z"/>
<path fill="#302C3B" d="M39.028,33.987c0,0,3.369,5.072,5.857,6.458c-0.037,1.063-0.645,1.494-0.645,1.494l-1.332-0.841
	l-3.086,2.692c0,0,0.328,0.43,0.896,0.808c-0.744,0.456-1.506,0.293-1.506,0.293s-3.568-2.239-4.715-6.8
	c0.551-0.751,1.438-0.805,1.438-0.805c0.732,3.058,2.725,5.43,2.725,5.43l2.971-2.845c0,0-2.189-2.487-3.262-4.657
	C38.62,34.326,39.028,33.987,39.028,33.987z"/>
<path fill="#302C3B" d="M57.146,24.058c0,0-0.136-1.074-0.365-0.959c-0.957,0.479-3.598,0.869-3.598,0.869s0.313-3.242,2.478-5.383
	c0.185-0.183-0.605-0.651-0.856-0.587c-1.52,0.39-2.84,5.923-2.84,5.923s-1.249,0.161-4.912-0.142c0,0,1.104,0.803,1.442,0.876
	C54.055,25.855,57.146,24.058,57.146,24.058z"/>
<path fill="#E81C27" d="M61.198,15.706c-1.858-3.763-6.345-5.342-10.021-3.527c-1.013,0.5,2.292,3.929,3.639,6.656
	c1.227,2.486,1.839,7.585,3.086,6.968C61.578,23.991,63.054,19.47,61.198,15.706z"/>
</svg>
