<?xml version="1.0" encoding="utf-8"?>
<!-- Generator: Adobe Illustrator 15.0.0, SVG Export Plug-In . SVG Version: 6.00 Build 0)  -->
<!DOCTYPE svg PUBLIC "-//W3C//DTD SVG 1.1//EN" "http://www.w3.org/Graphics/SVG/1.1/DTD/svg11.dtd">
<svg version="1.1" id="Layer_1" xmlns="http://www.w3.org/2000/svg" xmlns:xlink="http://www.w3.org/1999/xlink" x="0px" y="0px"
	 width="64px" height="64px" viewBox="0 0 64 64" enable-background="new 0 0 64 64" xml:space="preserve">
<path fill="#38332D" d="M21.486,10.813C13.293,40.776,43.523,53.712,57,29.603c-8.691,0-10.393-4.424-10.393-4.424
	s3.977-1.623,4.697-5.6c-12.135,1.533-7.242-15.14-15.811-16.3C30.82-0.072,23.512,3.408,21.486,10.813z"/>
<path fill="#614A36" d="M41.313,29.897c-0.5-0.787-0.9-1.572-1.201-2.359c0.201-0.982,0.184-4.418,0.184-5.105
	c0,0-1.08-0.594-2.48-0.889c-0.5-0.393-1.799-1.08-3.797-1.08c-1.199-0.787-0.4-3.047-0.4-3.047H29.52c0,0,0.9,2.652-0.697,2.75
	c-3.498,0.197-3.699,3.047-3.699,3.047c-1.799,3.834-2.098,6.094-3.697,8.451c-2.098,0.688-2.998,4.029-8.494,7.271
	c-0.6,0.395-1.598,0.689-2.398,0.885c-0.299,0-0.699,0-0.9,0.1c-0.1,0-0.199,0.098-0.299,0.293c-0.199,0.1-0.299,0.1-0.398,0.197
	c-0.5,0.295-2.199,1.277-1.9,1.672c0.201,0.195,0.801-0.395,1.6-0.787c0,0.393-0.1,0.982-0.1,1.277c0,0.197,0.4,0.098,0.5-0.295
	c0.1-0.295,0.201-0.885,0.201-1.277h0.098c0,0.295,0,0.787,0,0.982c0,0.197,0.299,0,0.4-0.195c0.1-0.197,0.1-0.59,0.1-0.885
	c0.799-0.197,1.799-0.295,2.1,0c0.197,0.195,0.398,0.885,0.1,1.375c-0.5,0.59-0.1,0.885,0.098,0.688
	c0.602-0.393,1.102-0.883,1.301-1.08c0.301-0.492,0.301-1.18,0.5-1.867c0.1-0.59,8.193-4.127,9.592-6.781
	c1-1.965,2.5-5.012,4.498-7.271c3.398,3.439,2.898,5.896,2.898,5.896l-4.799,1.18l3.998,5.109l7.098-2.064c0,0-0.9-1.867-0.5-2.357
	c0.896-1.082,1.598-2.064,2.197-3.047c1.357,3.893,9.793,6.979,9.992,7.566C48.906,38.249,43.41,30.585,41.313,29.897z"/>
<path fill="#3B2B1C" d="M35.217,32.942c-0.602,0.787,0.055,0.83-0.201,1.082C34.764,34.274,33.818,33.63,35.217,32.942z"/>
<path fill="#3B2B1C" d="M35.916,22.329c0,0,3.098,1.475,2.098,3.637C36.916,28.226,38.914,24.688,35.916,22.329z"/>
<path fill="#3B2B1C" d="M38.84,30.804c0,0,0.271,0.471,0.572,0.863c0,0,0.801-1.77,0.699-4.129
	C40.111,27.538,39.74,29.132,38.84,30.804z"/>
<path fill="#F26887" d="M41.713,22.821c-0.4-0.393-0.9-0.295-0.9-0.295c-0.701-0.492-1.799,0.197-2.799,1.77
	c0,0-5.596-2.162-7.193,0.295c0,0-0.701-0.1-0.801,0.688c-0.1,0.785,0.4,1.08,0.4,1.08c1,2.359,7.295,2.262,7.795,0
	c1.998,0.393,4.197-0.982,3.697-2.357C42.012,23.901,42.213,23.411,41.713,22.821z"/>
<path fill="#A3C86B" d="M20.229,46.603c5.994-1.375,10.691,5.307,11.191,8.451c0.299,2.26-0.9,3.93-5.896,5.6
	c-10.791,3.637-2.697-0.982-2.697-3.34c0-0.393,0.4-0.785,0.898-1.18c-9.492,0.395-13.391-3.832-15.789-7.566
	C5.137,44.243,9.035,49.157,20.229,46.603z"/>
<path fill="#529320" d="M12.834,48.972c6.25,1.832,10.99-3.293,17.285,5.295c0.178,0.242-0.92,0.732-1.1,0.492
	C23.678,47.573,15.643,51.731,12.834,48.972z"/>
<path fill="#529320" d="M14.596,51.897c4.658,1.137,8.191-2.043,12.883,3.285c0.131,0.148-0.686,0.455-0.82,0.305
	C22.678,51.03,16.689,53.61,14.596,51.897z"/>
<path fill="#529320" d="M24.123,59.671c3.998-1.67,3.898-4.027,3.898-4.027l-1.1,0.098C26.922,58.198,21.426,60.753,24.123,59.671z"
	/>
<path fill="#529320" d="M26.922,59.083c3.598-1.672,3.398-4.029,3.398-4.029l-1.1,0.295C29.221,57.806,24.725,60.163,26.922,59.083z
	"/>
<path fill="#7AB51D" d="M38.414,45.423c-22.584,6.486-23.982-9.139-12.293-12.381c0,0,3.799,1.277,4.1,3.145
	c0,0,20.984-4.422,22.984,0.098c3.396,7.861-13.691,20.932-28.48,19.654C24.725,55.938,37.514,52.007,38.414,45.423z"/>
<path fill="#529320" d="M24.725,55.938c18.859-5.508,11.109-10.891,19.086-16.313C34.268,44.343,43.168,48.567,24.725,55.938z"/>
<path fill="#529320" d="M43.523,34.335c-8.014-0.369-16.502,2.145-19.699,3.129C23.824,37.464,37.092,34.712,43.523,34.335z"/>
<path fill="#3B2B1C" d="M29.803,18.767c0,0-0.133,1.084-0.582,1.303c2.896,0.59,4.148-0.846,4.148-0.846L29.803,18.767z"/>
<path fill="#E84D88" d="M30.82,24.591c0,0,2.363,0.865,7.605,0.557C34.898,26.015,31.912,25.72,30.82,24.591z"/>
<path fill="#E84D88" d="M40.813,22.526c0,0-0.104,1.629-2.275,2.467C40.975,24.854,41.256,22.851,40.813,22.526z"/>
<path fill="#E84D88" d="M41.912,24.001c0,0-1.07,1.326-3.234,1.723C40.41,26.142,41.756,24.745,41.912,24.001z"/>
<path fill="#E84D88" d="M30.42,26.358c0,0,5.166,0.785,8.006-0.336C36.49,27.634,32.334,27.54,30.42,26.358z"/>
<path fill="#E84D88" d="M38.014,24.296c0.4,0.098,0.701,0.49,0.801,0.982c0.1,0.393-0.1,0.885-0.5,1.08c0-0.195,0-0.393,0-0.59
	c0-0.195,0-0.295,0-0.49C38.314,24.983,38.215,24.688,38.014,24.296z"/>
<path fill="#523924" d="M25.787,13.843c0.795-0.74,0.072-3.645-0.953-3.82C22.643,9.649,24.07,15.438,25.787,13.843z"/>
<path fill="#523924" d="M37.553,13.843c-0.795-0.74-0.072-3.645,0.953-3.82C40.695,9.649,39.27,15.438,37.553,13.843z"/>
<path fill="#614A36" d="M38.295,10.099c-3.26-2.195-3.693-4.53-3.693-4.53c-3.727,3.46-9.541,4.54-9.541,4.54s0,2.227,0.428,4.488
	c0.418,2.207,3.902,5.154,6.182,5.154c2.281,0,5.764-2.947,6.182-5.154C38.281,12.335,38.295,10.099,38.295,10.099z"/>
<path fill="#F5F5F5" d="M37.059,11.704c-0.695,1.813-3.529,1.547-4.047,0.279C33.404,9.944,36.676,9.769,37.059,11.704z"/>
<path fill="#45332C" d="M33.732,11.509c0,1.602,2.314,1.602,2.314,0C36.047,10.024,33.732,10.024,33.732,11.509z"/>
<path fill="#45332C" d="M37.059,11.69c0-1.947-4.047-1.947-4.047,0.309C33.59,10.147,36.48,10.147,37.059,11.69z"/>
<path fill="#F5F5F5" d="M26.359,11.704c0.697,1.813,3.531,1.547,4.049,0.279C30.014,9.944,26.744,9.769,26.359,11.704z"/>
<path fill="#45332C" d="M29.686,11.509c0,1.602-2.313,1.602-2.313,0C27.373,10.024,29.686,10.024,29.686,11.509z"/>
<path fill="#45332C" d="M26.359,11.69c0-1.947,4.049-1.947,4.049,0.307C29.83,10.147,26.938,10.147,26.359,11.69z"/>
<path fill="#3B2C20" d="M34.602,16.354c-0.545,0.615-0.885,1.705-2.893,1.705c-1.75,0-2.232-0.959-2.891-1.705H34.602z"/>
<path fill="#FFFFFF" d="M34.24,16.374c-1.191,1.219-3.855,1.236-5.061,0H34.24z"/>
<path fill="#3B2C20" d="M31.709,16.257c-1.133-0.498-1.141-0.02-2.891,0.098c2.209,0.248,3.574,0.248,5.783,0
	C32.852,16.237,32.842,15.759,31.709,16.257z"/>
<path fill="#3B2B1C" d="M36.814,9.956c-1.227-0.506-2.904-0.604-3.766-0.268c-0.184,0.072-0.178,0.506-0.016,0.463
	c1.234-0.336,2.656-0.363,3.826,0.045C37.018,10.251,36.998,10.03,36.814,9.956z"/>
<path fill="#3B2B1C" d="M26.563,9.956c1.225-0.506,2.902-0.604,3.764-0.268c0.182,0.072,0.178,0.506,0.016,0.463
	c-1.234-0.336-2.656-0.363-3.826,0.045C26.357,10.251,26.377,10.03,26.563,9.956z"/>
<path fill="#3B2B1C" d="M33.156,14.604c0,0.928-2.854,0.928-2.854,0C30.303,14.392,33.156,14.392,33.156,14.604z"/>
</svg>
