<?xml version="1.0" encoding="utf-8"?>
<!-- Generator: Adobe Illustrator 15.0.0, SVG Export Plug-In . SVG Version: 6.00 Build 0)  -->
<!DOCTYPE svg PUBLIC "-//W3C//DTD SVG 1.1//EN" "http://www.w3.org/Graphics/SVG/1.1/DTD/svg11.dtd">
<svg version="1.1" id="Layer_1" xmlns="http://www.w3.org/2000/svg" xmlns:xlink="http://www.w3.org/1999/xlink" x="0px" y="0px"
	 width="64px" height="64px" viewBox="0 0 64 64" enable-background="new 0 0 64 64" xml:space="preserve">
<path fill="#014D87" d="M25.876,55.929c-0.954,1.871-2.108,3.663-3.452,5.365L23.674,62c1.401-1.761,2.376-3.152,3.59-5.563
	C27.324,56.317,26.03,55.63,25.876,55.929z"/>
<path fill="#014D87" d="M21.207,60.173l-1.245-0.704c2.12-2.675,3.772-5.591,4.909-8.666l1.43,0.378
	C25.12,54.372,23.406,57.396,21.207,60.173z"/>
<path fill="#014D87" d="M18.85,58.183l-1.244-0.704c2.121-2.675,3.771-5.591,4.91-8.666l1.428,0.378
	C22.764,52.381,21.051,55.406,18.85,58.183z"/>
<path fill="#014D87" d="M14.137,54.784l-1.245-0.704c2.121-2.675,3.772-5.591,4.91-8.666l1.429,0.378
	C18.05,48.983,16.337,52.008,14.137,54.784z"/>
<path fill="#014D87" d="M11.332,52.793l-1.244-0.703c2.121-2.675,3.771-5.591,4.91-8.667l1.43,0.378
	C15.246,46.992,13.531,50.018,11.332,52.793z"/>
<path fill="#014D87" d="M16.493,56.191l-1.245-0.703c2.121-2.676,3.771-5.592,4.91-8.667l1.43,0.378
	C20.406,50.391,18.693,53.415,16.493,56.191z"/>
<path fill="#014D87" d="M8.232,50.803L7,50.083c1.086-1.52,1.621-2.344,2.226-3.27l1.988-0.832
	C10.455,47.691,9.453,49.313,8.232,50.803z"/>
<path fill="#C21413" d="M15.433,13.834c12.262,0.834,11.571,4.236,20.128,3.194c6.002-0.732,14.104-6.289,20.484-6.238
	c1.084,0.01,1.3-1.476,0.365-1.938l-0.016-0.008c0.279-0.451,0.237-2.388-0.716-3.418c0.283-2.42-1.79-3.639-2.726-3.396
	C36.85,6.8,30.523,5.901,17.605,4.023c-2.291-0.095-2.591,2.776-2.255,3.428C14.838,7.899,12.229,13.57,15.433,13.834z"/>
<path fill="#A30505" d="M36.309,8.08c1.18-4.158-2.941-4.188-3.895-4.115c-0.29,0.021-2.878,44.758-4.278,48.518l8.024,2.207
	C39.877,31.379,33.844,16.774,36.309,8.08z"/>
<path fill="#E81C27" d="M27.572,55.779c1.685-3.785,5.943-16.483,7.985-38.752c-0.149-5.119-0.909-5.743,0.546-11.422
	c0-1.121-2.238-2.151-4.121-2.043c-0.299,0.018-3.807,0.378-4.764,0.136c-2.398-0.61-4.379,0.65-4.475,1.699
	c-3.018,6.71-0.268,7.822-1.284,11.63c-1.647,8.215-9.511,24.578-11.695,28.799C9.479,46.376,27.457,56.04,27.572,55.779z"/>
<path fill="#A30505" d="M35.783,13.97c5.466,2.219,14.089-6.098,20.611-5.124C49.383,5.638,42.092,14.854,35.783,13.97z"/>
<path fill="#A30505" d="M55.682,5.427c-7.073-0.535-8.528,2.204-12.404,2.214C45.557,5.357,52.609,3.089,55.682,5.427z"/>
<path fill="#A30505" d="M15.351,7.451c1.655,0.016,3.939,0.469,5.447,1.094C19.264,8.882,16.576,8.374,15.351,7.451z"/>
<path fill="#C21413" d="M27.326,15.193c0.073-1.185,0.069-8.697,0.884-11.172C24.176,8.673,27.326,15.193,27.326,15.193z"/>
<path fill="#C21413" d="M35.561,17.029c-7.406,0.588-12.508,0.553-13.887-2.366c0.055,0.711,0.03,1.46-0.212,2.364
	C23.496,19.604,35.539,19.527,35.561,17.029z"/>
<path fill="#006DAE" d="M24.675,53.789c-2.454,0,0.296-4.378-5.644-2.735c-0.574,0.159-1.193-0.105-1.367-0.595
	c-0.447-1.284-1.354-3.453-2.417-3.638C13.73,46.559,9.93,46.733,9.622,46.1c-0.206,0.391-0.343,0.637-0.396,0.713
	c0,0,4.499,4.895,18.036,9.621c0.331-0.603,0.637-1.325,1.048-2.484C27.411,54.09,25.498,53.789,24.675,53.789z"/>
<path fill="#FFE1BD" d="M28.311,53.95c0.152-0.325,0.236-0.617,0.357-0.982c-1.077,0.102-2.039,0.823-3.127,0.675
	c-1.102-0.151-1.391-1.772-1.863-2.461c-0.703-1.026-1.767-1.186-3.09-1.012c-0.996,0.131-2.295,0.673-2.95-0.215
	c-0.616-0.832-0.52-1.952-1.245-2.743c-0.807-0.881-2.265-0.777-3.437-0.726c-1.03,0.045-2.956-0.394-2.421-2.186
	c-0.407,0.733-0.702,1.351-0.914,1.799l0,0c0.962,2.317,4.039,1.157,5.155,1.404c1.038,0.229,1.099,1.262,1.384,2.005
	c0.307,0.803,0.753,1.653,1.807,1.885c1.227,0.271,2.423-0.391,3.645-0.31c2.108,0.139,1.379,3.553,3.97,3.553
	C26.402,54.639,27.411,54.09,28.311,53.95L28.311,53.95z"/>
<path fill="#006DAE" d="M25.688,48.342c-0.744-1.026-1.869-1.187-3.269-1.012c-1.056,0.131-2.427,0.673-3.122-0.214
	c-0.652-0.833-0.551-1.952-1.316-2.743c-0.854-0.881-2.396-0.777-3.637-0.727c-1.088,0.045-2.98-0.262-2.418-2.194
	c-0.354,0.736-0.71,1.325-0.981,2.021c1.063,2.104,4.146,0.944,5.325,1.19c1.097,0.229,1.163,1.263,1.462,2.006
	c0.325,0.804,0.799,1.653,1.913,1.886c1.299,0.27,2.564-0.391,3.855-0.312c2.23,0.141,1.396,5.171,5.667,3.245
	c0.123-0.323,0.22-0.622,0.315-0.99C26.639,52.068,26.188,49.029,25.688,48.342z"/>
<path fill="#FFE1BD" d="M26.93,45.355c-0.412-1.135-1.768-1.186-3.089-1.012c-0.997,0.131-2.296,0.674-2.95-0.214
	c-0.615-0.833-0.52-1.952-1.246-2.743c-0.807-0.881-2.266-0.777-3.437-0.726c-1.03,0.044-3.095-0.479-2.384-3.267
	c-0.432,0.82-0.793,1.547-1.111,2.397c0.143,0.826,0.947,1.619,1.893,1.831c1.115,0.249,2.308-0.19,3.424,0.057
	c1.037,0.229,1.098,1.262,1.383,2.006c0.306,0.803,0.754,1.652,1.807,1.885c1.226,0.271,2.423-0.392,3.645-0.311
	c2.109,0.139,0.991,4.817,5.205,3.293c0.09-0.317,0.183-0.642,0.274-0.977C29.837,47.749,28.136,48.688,26.93,45.355z"/>
<path fill="#C21413" d="M31.422,18.292c0,6.459-3.112,10.638-8.795,17.73c2.219-5.164,5.23-11.168,5.23-17.627
	C27.857,17.123,31.422,17.02,31.422,18.292z"/>
<path fill="#C21413" d="M26.637,18.535c-1.175,5.271-2.614,8.056-5.235,11.283c2.542-4.745,2.622-7.482,3.106-11.488
	C24.609,17.494,26.82,17.708,26.637,18.535z"/>
</svg>
